<svg
  viewBox="0 0 1024 1024"
  version="1.1"
  xmlns="http://www.w3.org/2000/svg"
>
  <path
    fill="currentColor"
    d="M915.130182 946.385455 102.656 946.385455c-8.308364 0-16.011636-4.421818-20.154182-11.659636-4.165818-7.214545-4.142545-16.058182 0.023273-23.272727L173.149091 754.967273 173.149091 413.579636c0-159.115636 113.966545-296.936727 268.241455-328.564364L441.390545 75.822545c0-38.679273 31.464727-70.144 70.120727-70.144s70.120727 31.464727 70.120727 70.144L581.632 86.109091c153.576727 33.675636 263.028364 168.354909 263.028364 327.470545l0 341.410909 90.624 156.462545c4.189091 7.214545 4.189091 16.058182 0.023273 23.272727C931.141818 941.963636 923.461818 946.385455 915.130182 946.385455zM143.034182 899.84l731.717818 0-75.776-130.839273c-3.863273-6.679273-4.165818-14.801455-0.861091-21.690182l0-333.730909c0-142.801455-102.353455-262.749091-243.409455-285.230545-11.287273-1.792-19.618909-11.543273-19.618909-22.970182l0-29.556364c0-13.009455-10.565818-23.598545-23.575273-23.598545-13.009455 0-23.575273 10.589091-23.575273 23.598545l0 28.741818c0 11.589818-8.517818 21.410909-19.991273 23.04C326.4 147.735273 219.694545 270.661818 219.694545 413.579636l0 336.314182c2.397091 6.283636 2.513455 13.242182-0.884364 19.106909L143.034182 899.84z"
  ></path>
  <path
    fill="currentColor"
    d="M506.205091 1018.298182c-38.656 0-70.120727-31.464727-70.120727-70.144 0-12.869818 10.426182-23.272727 23.272727-23.272727s23.272727 10.402909 23.272727 23.272727c0 13.009455 10.565818 23.598545 23.575273 23.598545 13.009455 0 23.598545-10.589091 23.598545-23.598545 0-12.869818 10.402909-23.272727 23.272727-23.272727s23.272727 10.402909 23.272727 23.272727C576.349091 986.833455 544.884364 1018.298182 506.205091 1018.298182z"
  ></path>
</svg>
