<svg
  viewBox="0 0 1024 1024"
  version="1.1"
  xmlns="http://www.w3.org/2000/svg"
>
  <path
    fill="currentColor"
    d="M784.896 1017.024H239.104a173.824 173.824 0 0 1-173.632-173.632v-620.16a148.992 148.992 0 0 1 148.8-148.8h49.6a24.832 24.832 0 0 1 0.064 49.6h-49.6c-54.656 0-99.2 44.544-99.2 99.2v620.16c0 68.352 55.68 124.032 124.032 124.032h545.728a124.16 124.16 0 0 0 124.032-124.032v-620.16c0-54.656-44.544-99.2-99.2-99.2h-49.6a24.832 24.832 0 0 1 0-49.664h49.6a148.992 148.992 0 0 1 148.8 148.8v620.16a173.824 173.824 0 0 1-173.632 173.696zM660.8 49.6H363.136a24.768 24.768 0 1 1 0-49.6h297.664a24.832 24.832 0 0 1 0 49.6z"
  ></path>
  <path
    fill="currentColor"
    d="M636.032 148.8H387.968a24.832 24.832 0 0 1 0-49.6h248a24.832 24.832 0 0 1 0.064 49.6z"
  ></path>
  <path
    fill="currentColor"
    d="M512 124.032a24.832 24.832 0 0 1-24.832-24.832V49.6a24.832 24.832 0 0 1 49.6 0v49.6A24.832 24.832 0 0 1 512 124.032z"
  ></path>
</svg>
