<svg
  viewBox="0 0 1024 1024"
  version="1.1"
  xmlns="http://www.w3.org/2000/svg"
>
  <path
    fill="currentColor"
    d="M710.845279 290.500257c24.26566 0 45.345768-19.693528 45.345768-44.002167L756.191046 46.52871c0-24.308639-21.081131-44.023656-45.345768-44.023656-24.286126 0-43.958164 19.715017-43.958164 44.023656l0 199.969381C666.887115 270.806729 686.559153 290.500257 710.845279 290.500257zM623.079376 113.343441 400.514371 113.343441l0 66.468854 222.565005 0L623.079376 113.343441zM883.474988 113.343441l-82.717933 0 0 66.100464 85.881996 0c25.261337 0 46.579875 21.361517 46.579875 46.645366l0 153.823388L90.398358 379.912659l0-153.823388c0-25.282826 21.318538-46.645366 46.579875-46.645366l86.444814 0L223.423047 113.343441l-82.58695 0c-64.042595 0-116.428709 52.473095-116.428709 116.624161l0 676.342975c0 64.130599 50.457182 116.601648 114.499777 116.601648L883.474988 1022.912226c64.019059 0 116.427686-52.471049 116.427686-116.601648L999.902674 229.967602C999.902674 165.816536 947.493024 113.343441 883.474988 113.343441zM933.217902 909.73456c0 25.282826-21.318538 46.644343-46.579875 46.644343L136.978233 956.378903c-25.261337 0-46.579875-21.361517-46.579875-46.644343L90.398358 446.143083 933.217902 446.143083 933.217902 909.73456zM266.948353 645.744074c36.852326 0 66.707284-29.919427 66.707284-66.836221 0-36.897352-29.854958-66.815755-66.707284-66.815755-36.829813 0-66.707284 29.919427-66.707284 66.815755C200.241069 615.824647 230.117516 645.744074 266.948353 645.744074zM511.222799 645.744074c36.830837 0 66.707284-29.919427 66.707284-66.836221 0-36.897352-29.875424-66.815755-66.707284-66.815755-36.852326 0-66.707284 29.919427-66.707284 66.815755C444.515514 615.824647 474.370473 645.744074 511.222799 645.744074zM265.757225 890.1055c36.852326 0 66.706261-29.919427 66.706261-66.815755 0-36.917818-29.853935-66.837244-66.706261-66.837244-36.830837 0-66.707284 29.919427-66.707284 66.837244C199.04994 860.186074 228.925365 890.1055 265.757225 890.1055zM511.222799 890.1055c36.830837 0 66.707284-29.919427 66.707284-66.815755 0-36.917818-29.875424-66.837244-66.707284-66.837244-36.852326 0-66.707284 29.919427-66.707284 66.837244C444.515514 860.186074 474.370473 890.1055 511.222799 890.1055zM755.150344 645.744074c36.83186 0 66.708308-29.919427 66.708308-66.836221 0-36.897352-29.876448-66.815755-66.708308-66.815755-36.852326 0-66.707284 29.919427-66.707284 66.815755C688.444083 615.824647 718.298018 645.744074 755.150344 645.744074zM311.513338 290.500257c24.264637 0 45.345768-19.693528 45.345768-44.002167L356.859106 46.52871c0-24.308639-21.080108-44.023656-45.345768-44.023656-24.285103 0-43.959188 19.715017-43.959188 44.023656l0 199.969381C267.55415 270.806729 287.228235 290.500257 311.513338 290.500257z"
  ></path>
</svg>
