<svg
  viewBox="0 0 1024 1024"
  version="1.1"
  xmlns="http://www.w3.org/2000/svg"
>
  <path
    fill="currentColor"
    d="M42.666667 512.021333C42.666667 771.2 252.8 981.333333 512 981.333333 771.2 981.333333 981.333333 771.2 981.333333 512.021333 981.333333 252.8 771.2 42.666667 512 42.666667 252.8 42.666667 42.666667 252.8 42.666667 512.021333L42.666667 512.021333ZM85.333333 512.021333C85.333333 276.736 276.736 85.333333 512 85.333333 747.264 85.333333 938.666667 276.736 938.666667 512.021333 938.666667 747.264 747.264 938.666667 512 938.666667 276.736 938.666667 85.333333 747.264 85.333333 512.021333L85.333333 512.021333Z"
  ></path>
  <path
    fill="currentColor"
    d="M543.685333 513.525333 679.450667 377.738667C687.792 369.418667 687.792 355.914667 679.450667 347.573333 671.130667 339.253333 657.626667 339.253333 649.285333 347.573333L513.52 483.36 377.754667 347.594667C369.434667 339.274667 355.930667 339.274667 347.589333 347.594667 339.248 355.936 339.248 369.44 347.589333 377.76L483.354667 513.525333 347.589333 649.290667C339.248 657.632 339.248 671.114667 347.589333 679.456 351.749333 683.616 357.210667 685.706667 362.672 685.706667 368.133333 685.706667 373.594667 683.616 377.754667 679.456L513.52 543.690667 649.285333 679.456C653.466667 683.616 658.906667 685.706667 664.368 685.706667 669.829333 685.706667 675.290667 683.616 679.450667 679.456 687.792 671.114667 687.792 657.632 679.450667 649.290667L543.685333 513.525333Z"
  ></path>
</svg>
