<svg
  viewBox="0 0 1024 1024"
  version="1.1"
  xmlns="http://www.w3.org/2000/svg"
>
  <path
    fill="currentColor"
    d="M235.744 494.944c-37.536 0-68.256 30.72-68.256 68.256s30.72 68.256 68.256 68.256 68.256-30.72 68.256-68.256-30.72-68.256-68.256-68.256zM235.744 597.344c-18.784 0-34.144-15.36-34.144-34.144s15.36-34.144 34.144-34.144c18.784 0 34.144 15.36 34.144 34.144s-15.36 34.144-34.144 34.144z"
  ></path>
  <path
    fill="currentColor"
    d="M781.856 494.944c-37.536 0-68.256 30.72-68.256 68.256s30.72 68.256 68.256 68.256c37.536 0 68.256-30.72 68.256-68.256s-30.72-68.256-68.256-68.256zM781.856 597.344c-18.784 0-34.144-15.36-34.144-34.144s15.36-34.144 34.144-34.144c18.784 0 34.144 15.36 34.144 34.144s-15.36 34.144-34.144 34.144z"
  ></path>
  <path
    fill="currentColor"
    d="M851.84 358.4l-29.024-136.544c-11.936-44.384-46.08-68.256-92.16-68.256l-443.744 0c-47.776 0-75.104 23.904-88.736 68.256l-30.72 136.544-119.456 0 0 34.144 110.944 0 0 1.696c-52.896 3.424-93.856 47.776-93.856 102.4l0 237.216 51.2 0 0 51.2c0 47.776 37.536 85.344 85.344 85.344s85.344-37.536 85.344-85.344l0-51.2 443.744 0 0 51.2c0 47.776 37.536 85.344 85.344 85.344s85.344-37.536 85.344-85.344l0-51.2 51.2 0 0-237.216c0-52.896-40.96-97.28-92.16-102.4l0-1.696 109.216 0 0-34.144-117.76 0zM230.624 232.096c10.24-30.72 25.6-44.384 56.32-44.384l443.744 0c32.416 0 51.2 13.664 59.744 42.656l34.144 163.84-631.456 0 37.536-162.144zM252.8 785.056c0 29.024-22.176 51.2-51.2 51.2s-51.2-22.176-51.2-51.2l0-51.2 102.4 0 0 51.2zM867.2 785.056c0 29.024-22.176 51.2-51.2 51.2s-51.2-22.176-51.2-51.2l0-51.2 102.4 0 0 51.2zM918.4 496.64l0 203.104-819.2 0 0-203.104c0-37.536 30.72-68.256 68.256-68.256l682.656 0c37.536 0 68.256 30.72 68.256 68.256z"
  ></path>
</svg>
