<svg
  viewBox="0 0 1024 1024"
  version="1.1"
  xmlns="http://www.w3.org/2000/svg"
>
  <path
    fill="currentColor"
    d="M860.949333 71.317333a113.066667 113.066667 0 0 1 112.96 108.416l0.106667 4.650667v221.973333a27.733333 27.733333 0 0 1-55.338667 2.837334l-0.128-2.837334V184.384a57.6 57.6 0 0 0-53.973333-57.493333l-3.626667-0.106667H165.312a57.6 57.6 0 0 0-57.472 53.973333l-0.128 3.626667v661.333333a57.6 57.6 0 0 0 53.973333 57.493334l3.626667 0.106666h662.549333a27.733333 27.733333 0 0 1 2.837334 55.317334l-2.837334 0.149333H165.333333a113.066667 113.066667 0 0 1-112.96-108.394667l-0.106666-4.672v-661.333333a113.066667 113.066667 0 0 1 108.416-112.981333l4.650666-0.085334h695.637334z"
  ></path>
  <path
    fill="currentColor"
    d="M424.234667 199.338667h-182.826667a70.4 70.4 0 0 0-70.4 70.4v204.885333a67.2 67.2 0 0 0 114.154667 48.042667l37.205333-36.394667a14.933333 14.933333 0 0 1 20.906667 0l37.184 36.394667a67.2 67.2 0 0 0 114.176-48.042667v-204.885333a70.4 70.4 0 0 0-70.4-70.4z m-182.826667 55.466666h182.826667a14.933333 14.933333 0 0 1 14.933333 14.933334v204.885333a11.733333 11.733333 0 0 1-19.925333 8.384l-37.205334-36.394667a70.4 70.4 0 0 0-98.453333 0l-37.205333 36.394667a11.733333 11.733333 0 0 1-19.904-8.384v-204.885333a14.933333 14.933333 0 0 1 14.933333-14.933334z"
  ></path>
  <path
    fill="currentColor"
    d="M761.152 403.072c-79.914667 0.490667-143.616 57.834667-143.616 131.754667l0.149333 6.336c1.002667 22.912 7.509333 42.218667 19.178667 63.253333l2.389333 4.202667 0.341334 0.746666c1.258667 2.645333 2.709333 4.970667 4.906666 7.381334l1.194667 1.792c4.906667 7.424 8.746667 14.186667 11.605333 19.946666l1.877334 3.989334h-21.482667c-43.861333 0-80.064 33.386667-80.064 75.946666v76.906667c0 26.816 22.933333 47.210667 49.664 47.210667h309.930667c26.624 0 49.173333-20.394667 49.173333-46.848v-77.248l-0.106667-4.096c-2.24-40.597333-37.461333-71.850667-79.914666-71.850667h-21.482667l0.32-0.704c3.434667-7.36 8.597333-16.704 15.786667-27.157333l1.322666-2.069334 4.053334-6.656v-0.533333l3.562666-6.549333c10.453333-20.330667 16.106667-40.384 16.106667-64.064 0-72.192-61.290667-128.64-138.666667-131.562667l-6.229333-0.128z m0.170667 55.466667h0.512c50.645333 0.341333 88.746667 34.453333 88.746666 76.224l-0.170666 5.44c-0.853333 12.48-4.629333 23.765333-11.584 36.629333l-2.133334 3.690667-5.76 6.122666v3.114667l-2.837333 4.373333c-21.205333 33.642667-29.568 64.490667-18.133333 88.170667l7.594666 15.658667h68.821334l2.773333 0.128c12.757333 1.152 21.781333 10.176 21.781333 20.352v68.629333H613.056v-68.629333c0-10.88 10.410667-20.48 24.618667-20.48h69.141333l7.466667-16.064 1.450666-3.456c9.237333-24.490667-0.64-55.509333-23.658666-90.304l-4.117334-6.058667c-10.325333-17.536-14.976-30.869333-14.976-47.253333 0-41.962667 37.781333-75.989333 88.32-76.288z"
  ></path>
  <path
    fill="currentColor"
    d="M458.666667 622.933333a27.733333 27.733333 0 0 1 2.837333 55.317334l-2.837333 0.149333h-256a27.733333 27.733333 0 0 1-2.837334-55.317333L202.666667 622.933333h256z"
  ></path>
</svg>
