<svg
  viewBox="0 0 1024 1024"
  version="1.1"
  xmlns="http://www.w3.org/2000/svg"
>
  <path
    fill="currentColor"
    d="M466.494302 845.989656H100.498777A99.998777 99.998777 0 0 1 0.5 745.990879V323.996039a99.998777 99.998777 0 0 1 99.998777-99.998778h365.995525a99.998777 99.998777 0 0 1 99.998778 99.998778v421.99484a99.998777 99.998777 0 0 1-99.998778 99.998777zM100.498777 303.996283a19.999755 19.999755 0 0 0-19.999755 19.999756v421.99484a19.999755 19.999755 0 0 0 19.999755 19.999756h365.995525a19.999755 19.999755 0 0 0 19.999756-19.999756V323.996039a19.999755 19.999755 0 0 0-19.999756-19.999756z"
  ></path>
  <path
    fill="currentColor"
    d="M424.494816 303.996283H142.498264a59.999266 59.999266 0 0 1-59.999267-59.999266v-92.998863a59.999266 59.999266 0 0 1 59.999267-59.999267h281.996552a59.999266 59.999266 0 0 1 59.999266 59.999267v92.998863a59.999266 59.999266 0 0 1-59.999266 59.999266z m-261.996797-79.999022h241.997042v-52.999352H162.498019zM982.487994 1023.98748a39.999511 39.999511 0 0 1-39.999511-39.999511V445.994547a113.998606 113.998606 0 0 0-226.997225 0v348.995733a228.9972 228.9972 0 0 1-228.9972 228.9972h-33.999584c-115.998582 0-210.99742-94.998838-210.997421-210.99742a39.999511 39.999511 0 0 1 79.999022 0c0 71.99912 58.999279 130.998398 130.998399 130.998398h33.999584c81.998997 0 148.998178-66.999181 148.998178-148.998178V445.994547c0-106.998692 86.998936-192.99764 193.997628-192.99764s193.997628 86.998936 193.997628 193.997628v536.993434a39.999511 39.999511 0 0 1-40.999498 39.999511z"
  ></path>
  <path
    fill="currentColor"
    d="M215.497371 149.998166a39.999511 39.999511 0 0 1-39.999511-39.999511V39.999511a39.999511 39.999511 0 0 1 79.999022 0v69.999144a39.999511 39.999511 0 0 1-39.999511 39.999511zM351.495709 149.998166a39.999511 39.999511 0 0 1-39.999511-39.999511V39.999511a39.999511 39.999511 0 0 1 79.999021 0v69.999144a39.999511 39.999511 0 0 1-39.99951 39.999511zM217.497347 718.991209a39.999511 39.999511 0 0 1-27.999658-67.999168l90.998888-90.998888h-85.998949a39.999511 39.999511 0 0 1-27.999658-67.999168l127.998435-127.998435a39.999511 39.999511 0 1 1 56.999304 56.999303l-58.999279 58.999278h84.998961a39.999511 39.999511 0 0 1 27.999657 67.999169L245.497005 706.991356a39.999511 39.999511 0 0 1-27.999658 11.999853z"
  ></path>
</svg>
