<svg
  viewBox="0 0 1024 1024"
  version="1.1"
  xmlns="http://www.w3.org/2000/svg"
>
  <path
    fill="currentColor"
    d="M674.7 272H349.3c-15.2 0-27.5 12.3-27.5 27.5s12.3 27.5 27.5 27.5h325.3c15.2 0 27.5-12.3 27.5-27.5S689.8 272 674.7 272z m0 138.4H349.3c-15.2 0-27.5 12.3-27.5 27.5s12.3 27.5 27.5 27.5h325.3c15.2 0 27.5-12.3 27.5-27.5s-12.3-27.5-27.4-27.5z m0 138.4H349.3c-15.2 0-27.5 12.3-27.5 27.5s12.3 27.5 27.5 27.5h325.3c15.2 0 27.5-12.3 27.5-27.5s-12.3-27.5-27.4-27.5z"
  ></path>
  <path
    fill="currentColor"
    d="M941.2 55.5H82.8C37.2 55.5 0 92.6 0 138.3v607.6c0 45.7 37.2 82.8 82.8 82.8h324.8l81.2 127.1c5 7.9 13.8 12.7 23.1 12.7 9.4 0 18.1-4.8 23.1-12.7l81.2-127.1H941c45.7 0 82.8-37.2 82.8-82.8V138.3c0.2-45.7-37-82.8-82.6-82.8z m27.9 690.4c0 15.4-12.5 27.9-27.9 27.9H601.3c-9.4 0-18.1 4.8-23.1 12.7L512 890l-66.1-103.6c-5-7.9-13.8-12.7-23.1-12.7h-340c-15.4 0-27.9-12.5-27.9-27.9V138.3c0-15.4 12.5-27.9 27.9-27.9h858.3c15.4 0 27.9 12.5 27.9 27.9v607.6z">
  </path>
</svg>
