<svg
  viewBox="0 0 1024 1024"
  version="1.1"
  xmlns="http://www.w3.org/2000/svg"
>
  <path
    fill="currentColor"
    d="M887.466667 580.266667h-136.533334a102.4 102.4 0 0 0-102.4 102.4v153.6a102.4 102.4 0 0 0 102.4 102.4h136.533334a68.266667 68.266667 0 0 0 68.266666-68.266667V648.533333a68.266667 68.266667 0 0 0-68.266666-68.266666z m-136.533334 68.266666h136.533334v221.866667h-136.533334a34.133333 34.133333 0 0 1-34.133333-34.133333v-153.6a34.133333 34.133333 0 0 1 34.133333-34.133334zM273.066667 580.266667H136.533333a68.266667 68.266667 0 0 0-68.266666 68.266666v221.866667a68.266667 68.266667 0 0 0 68.266666 68.266667h136.533334a102.4 102.4 0 0 0 102.4-102.4v-153.6a102.4 102.4 0 0 0-102.4-102.4z m-136.533334 68.266666h136.533334a34.133333 34.133333 0 0 1 34.133333 34.133334v153.6a34.133333 34.133333 0 0 1-34.133333 34.133333H136.533333V648.533333z"
  ></path>
  <path
    fill="currentColor"
    d="M512 85.333333c241.698133 0 439.739733 195.6352 443.682133 436.4288L955.733333 529.066667v204.8a34.133333 34.133333 0 0 1-68.181333 2.56L887.466667 733.866667V529.066667c0-206.421333-169.045333-375.466667-375.466667-375.466667C307.643733 153.6 139.912533 319.266133 136.584533 522.888533L136.533333 529.066667v204.8a34.133333 34.133333 0 0 1-68.181333 2.56L68.266667 733.866667V529.066667C68.266667 284.928 267.861333 85.333333 512 85.333333z"
  ></path>
  <path
    fill="currentColor"
    d="M682.666667 290.133333c6.8608 0 13.243733 2.013867 18.5856 5.495467l1.911466 1.348267c68.864 51.694933 106.8032 133.2736 108.680534 225.5872l0.068266 6.946133-68.266666 0.034133c-0.0512-72.362667-27.1872-134.638933-76.765867-174.318933l-4.7104-3.669333A34.133333 34.133333 0 0 1 682.666667 290.133333z"
  ></path>
</svg>
