<svg
  viewBox="0 0 1024 1024"
  version="1.1"
  xmlns="http://www.w3.org/2000/svg"
>
  <path
    fill="currentColor"
    d="M423.913978 677.381505l-36.555698 229.904517 121.999139 116.713978 110.107527-117.154409-28.627957-229.904516z m82.800861 259.853764l-54.172904-51.530323 23.783226-147.103656h60.338925l19.378925 147.544086z m445.715269 9.249032v-5.725591a448.357849 448.357849 0 0 0-227.261936-361.593119A330.322581 330.322581 0 0 0 512 0a330.322581 330.322581 0 0 0-212.727742 579.165591 444.834409 444.834409 0 0 0-158.114409 149.746237A451.00043 451.00043 0 0 0 71.569892 940.75871v8.368172a33.472688 33.472688 0 0 0 32.591828 33.472688 33.472688 33.472688 0 0 0 33.032258-31.710968v-8.808602a375.686882 375.686882 0 0 1 225.059785-319.752258H368.860215a320.633118 320.633118 0 0 0 131.248172 38.317419h23.783226a320.633118 320.633118 0 0 0 129.486452-32.591828H659.984516a375.246452 375.246452 0 0 1 225.059785 319.752258v8.808603a33.032258 33.032258 0 0 0 33.032258 31.710967 32.591828 32.591828 0 0 0 32.591828-33.472688l1.761721-8.368172z m-440.430108-358.950538a258.092043 258.092043 0 1 1 255.449462-258.092043 256.770753 256.770753 0 0 1-255.449462 258.092043z"
  ></path>
</svg>
