<svg
  viewBox="0 0 1024 1024"
  version="1.1"
  xmlns="http://www.w3.org/2000/svg"
>
  <path
    fill="currentColor"
    d="M512 0C230.4 0 0 230.4 0 512s230.4 512 512 512 512-230.4 512-512S793.6 0 512 0zM512 972.8C256 972.8 51.2 768 51.2 512S256 51.2 512 51.2 972.8 256 972.8 512 768 972.8 512 972.8z"
  ></path>
  <path
    fill="currentColor"
    d="M620.8 262.4l-70.4 128C531.2 422.4 518.4 448 518.4 460.8l0 0C499.2 435.2 467.2 364.8 409.6 262.4l-64 0 121.6 211.2L364.8 473.6l0 44.8 121.6 0 0 64L364.8 582.4l0 44.8 121.6 0 0 96 57.6 0L544 633.6l115.2 0L659.2 582.4 544 582.4l0-64 115.2 0L659.2 473.6 556.8 473.6l121.6-211.2L620.8 262.4z"
  ></path>
</svg>
