<svg
  viewBox="0 0 1024 1024"
  version="1.1"
  xmlns="http://www.w3.org/2000/svg"
>
  <path
    fill="currentColor"
    d="M255.999716 341.333333h512a28.444444 28.444444 0 1 1 0 56.888889h-512a28.444444 28.444444 0 0 1 0-56.888889z m0 170.666667h512a28.444444 28.444444 0 1 1 0 56.888889h-512a28.444444 28.444444 0 0 1 0-56.888889z m0 170.666667h512a28.444444 28.444444 0 1 1 0 56.888889h-512a28.444444 28.444444 0 1 1 0-56.888889z"
  ></path>
  <path
    fill="currentColor"
    d="M341.333049 56.888889v113.777778h341.333333V56.888889H341.333049z m0-56.888889h341.333333a56.888889 56.888889 0 0 1 56.888889 56.888889v113.777778a56.888889 56.888889 0 0 1-56.888889 56.888889H341.333049a56.888889 56.888889 0 0 1-56.888889-56.888889V56.888889a56.888889 56.888889 0 0 1 56.888889-56.888889z"
  ></path>
  <path
    fill="currentColor"
    d="M732.387271 105.244444V56.888889h114.915556C913.521493 56.888889 967.110827 110.990222 967.110827 177.777778v725.333333A120.32 120.32 0 0 1 847.359716 1024H176.639716A120.32 120.32 0 0 1 56.888604 903.111111V177.777778C56.888604 110.990222 110.534827 56.888889 176.639716 56.888889h121.628444v48.355555H176.639716A72.248889 72.248889 0 0 0 104.789049 177.777778v725.333333a72.248889 72.248889 0 0 0 71.850667 72.533333h670.72a72.248889 72.248889 0 0 0 71.850666-72.533333V177.777778a72.248889 72.248889 0 0 0-71.850666-72.533334h-114.972445z"
  ></path>
</svg>
