<svg
  viewBox="0 0 1024 1024"
  version="1.1"
  xmlns="http://www.w3.org/2000/svg"
>
  <path
    fill="currentColor"
    d="M801.472 1018.944H222.592c-100.736 0-182.72-78.016-182.72-174.016V223.616c0-82.176 70.144-149.12 156.416-149.12h52.608a24.896 24.896 0 1 1 0 49.728h-52.608c-58.88 0-106.688 44.608-106.688 99.392v621.312c0 68.544 59.648 124.288 132.992 124.288h578.944c73.344 0 133.056-55.744 133.056-124.288V223.616c0-54.72-47.872-99.392-106.752-99.392h-52.544a24.896 24.896 0 1 1 0-49.728h52.544c86.336 0 156.352 66.944 156.352 149.12v621.312c0 96-81.92 174.016-182.72 174.016zM669.568 49.728h-298.24a24.896 24.896 0 0 1 0-49.728h298.24a24.832 24.832 0 1 1 0 49.728z"
  ></path>
  <path
    fill="currentColor"
    d="M644.672 143.616H396.16a24.896 24.896 0 1 1 0-49.728h248.512a24.896 24.896 0 1 1 0 49.728z"
  ></path>
  <path
    fill="currentColor"
    d="M520.448 118.656a24.768 24.768 0 0 1-24.832-24.832V44.16a24.832 24.832 0 1 1 49.664 0v49.728a24.704 24.704 0 0 1-24.832 24.768zM669.568 704.384H443.968a54.4 54.4 0 0 1-54.336-54.272V385.216a24.832 24.832 0 1 1 49.728 0v264.896c0 2.56 2.112 4.544 4.608 4.544h225.6a24.832 24.832 0 1 1 0 49.728z"
  ></path>
</svg>
