<svg
  viewBox="0 0 1024 1024"
  version="1.1"
  xmlns="http://www.w3.org/2000/svg"
>
  <path
    fill="currentColor"
    d="M451.2 1024c-25.6 0-57.6-12.8-76.8-32l-345.6-345.6c-38.4-38.4-38.4-108.8 0-153.6l448-448c19.2-19.2 44.8-32 76.8-32L924.8 0c32 0 57.6 12.8 76.8 32C1020.8 51.2 1027.2 76.8 1027.2 108.8l-12.8 358.4c0 25.6-12.8 57.6-32 76.8l-448 448C508.8 1011.2 483.2 1024 451.2 1024zM924.8 64 566.4 76.8c-12.8 0-25.6 6.4-32 12.8l-448 448c-19.2 19.2-19.2 44.8 0 64l345.6 345.6c12.8 12.8 44.8 12.8 64 0l448-448c6.4-6.4 12.8-19.2 12.8-32L963.2 108.8c0-12.8-6.4-19.2-12.8-32C944 70.4 931.2 64 924.8 64z"
  ></path>
  <path
    fill="currentColor"
    d="M700.8 467.2c-38.4 0-70.4-12.8-96-38.4C579.2 396.8 560 364.8 560 326.4S579.2 256 604.8 230.4C630.4 204.8 662.4 192 700.8 192c38.4 0 70.4 12.8 96 38.4 51.2 51.2 51.2 140.8 0 192C771.2 448 739.2 467.2 700.8 467.2zM700.8 256c-19.2 0-38.4 6.4-51.2 19.2C636.8 288 624 307.2 624 326.4s6.4 38.4 19.2 51.2c25.6 25.6 76.8 25.6 102.4 0 25.6-25.6 25.6-76.8 0-102.4C739.2 262.4 720 256 700.8 256z"
  ></path>
</svg>
