<svg
  viewBox="0 0 1024 1024"
  version="1.1"
  xmlns="http://www.w3.org/2000/svg"
>
  <path
    fill="currentColor"
    d="M916 720c-17.67 0-32-14.33-32-32 0-228.28-166.43-414-371-414S142 459.72 142 688c0 17.67-14.33 32-32 32s-32-14.33-32-32c0-64.13 11.36-126.38 33.78-185.03 21.72-56.82 52.84-107.89 92.51-151.8 39.88-44.14 86.41-78.83 138.28-103.11C396.53 222.81 453.87 210 513 210c59.13 0 116.47 12.81 170.43 38.07 51.87 24.28 98.39 58.97 138.28 103.11 39.67 43.91 70.8 94.98 92.51 151.8C936.64 561.62 948 623.87 948 688c0 17.67-14.33 32-32 32z"
  ></path>
  <path
    fill="currentColor"
    d="M914.99 720.53h-800c-17.67 0-32-14.33-32-32s14.33-32 32-32h800c17.67 0 32 14.33 32 32s-14.32 32-32 32zM269.05 608.01c-9.05 0-17.68-3.83-23.74-10.55l-43.19-47.8c-11.01-12.18-11.01-30.72 0-42.91l3.6-3.98c6.07-6.71 14.69-10.55 23.74-10.55s17.68 3.83 23.74 10.55l43.2 47.8c11.01 12.18 11.01 30.72 0 42.91l-3.6 3.98a32.003 32.003 0 0 1-23.75 10.55zM755.97 607.89c-0.4 0-0.8-0.01-1.21-0.02a32.001 32.001 0 0 1-23.58-11.74l-1.71-2.09c-10.19-12.49-9.51-30.6 1.59-42.29l44.35-46.65a32.002 32.002 0 0 1 24.4-9.93c9.18 0.35 17.77 4.63 23.58 11.75l1.7 2.09c10.19 12.49 9.5 30.6-1.6 42.28l-44.35 46.65a31.899 31.899 0 0 1-23.17 9.95zM367.26 481.95c-9.05 0-17.68-3.83-23.74-10.55l-43.19-47.8c-11.01-12.18-11.01-30.72 0-42.91l3.6-3.98c6.07-6.71 14.69-10.55 23.74-10.55s17.68 3.83 23.74 10.55l43.19 47.8c11.01 12.18 11.01 30.72 0 42.91l-3.6 3.98a32.017 32.017 0 0 1-23.74 10.55zM515.11 426.07h-5.09c-17.67 0-32-14.33-32-32v-67.6c0-17.67 14.33-32 32-32h5.09c17.67 0 32 14.33 32 32v67.6c0 17.67-14.32 32-32 32zM517.39 634.05c-10.63 0-21.13-4.45-28.6-12.99-12.3-14.08-13.36-35.64-2.53-51.26 1.06-1.53 2.3-2.92 3.7-4.14L671.69 407.1c8.91-7.77 22.31-7.33 30.68 1.02s8.85 21.75 1.11 30.68L543.21 623.52a22.57 22.57 0 0 1-4.18 3.75 37.956 37.956 0 0 1-21.64 6.78z"
  ></path>
</svg>
