<svg
  viewBox="0 0 1024 1024"
  version="1.1"
  xmlns="http://www.w3.org/2000/svg"
>
  <path
    fill="currentColor"
    d="M512 981.333333c-7.808 0-15.658667-1.578667-23.466667-6.229333C19.2 779.861333 42.666667 237.909333 42.666667 233.216c1.578667-18.773333 14.08-35.925333 31.274666-42.154667l422.4-145.28a53.333333 53.333333 0 0 1 31.317334 0l422.4 145.28c18.773333 6.229333 31.274667 23.424 31.274666 42.154667 0 6.229333 23.466667 549.76-447.445333 743.424-4.693333 1.578667-7.808 3.114667-12.501333 4.693333H512zM136.533333 269.141333c1.578667 107.776 35.968 465.408 375.466667 615.338667 339.498667-149.930667 373.888-506.026667 375.466667-615.338667L512 139.52 136.533333 269.141333z"
  ></path>
</svg>
