<svg
  viewBox="0 0 1024 1024"
  version="1.1"
  xmlns="http://www.w3.org/2000/svg"
>
  <path
    fill="currentColor"
    d="M322.5 62h384.6v70H322.5z"
  ></path>
  <path
    fill="currentColor"
    d="M870.2 62h-59.3v70h59.3c7.2 0 13 5.8 13 13v733.9c0 7.2-5.8 13-13 13h-720c-7.2 0-13-5.8-13-13V145c0-7.2 5.8-13 13-13h68.6V62h-68.6c-45.8 0-83 37.2-83 83v733.9c0 45.8 37.2 83 83 83h720c45.8 0 83-37.2 83-83V145c0-45.8-37.3-83-83-83z"
  ></path>
  <path
    fill="currentColor"
    d="M295 806.2c-0.5-5.7-0.7-11.6-0.7-17.3 0-119 96.8-215.8 215.8-215.8S726 669.8 726 788.8c0 5.8-0.2 11.6-0.7 17.3l69.8 5.6c0.6-7.6 0.9-15.3 0.9-22.9 0-76.4-29.7-148.1-83.7-202.1-29.7-29.8-64.9-52.1-103.3-66.2 45.6-31.5 75.5-84.1 75.5-143.5 0-96.1-78.2-174.4-174.4-174.4-96.1 0-174.4 78.2-174.4 174.4 0 59.5 29.9 112 75.5 143.5C373 534.6 337.8 557 308 586.7c-54 54-83.7 125.8-83.7 202.1 0 7.6 0.3 15.3 0.9 22.9l69.8-5.5z m215.2-533.6c57.5 0 104.4 46.8 104.4 104.4 0 57.5-46.8 104.4-104.4 104.4-57.5 0-104.4-46.8-104.4-104.4 0-57.6 46.8-104.4 104.4-104.4z"
  ></path>
</svg>
