<svg
  viewBox="0 0 1024 1024"
  version="1.1"
  xmlns="http://www.w3.org/2000/svg"
>
  <path
    fill="currentColor"
    d="M971.499905 107.548089A114.092989 114.092989 0 0 0 855.695916 0.0161H169.142983A114.092989 114.092989 0 0 0 55.049995 107.834089L0 498.887051a109.529989 109.529989 0 0 0 59.327994 96.122991v305.19797a124.645988 124.645988 0 0 0 125.216988 123.789988h656.032936c85.569992 0 125.216988-53.622995 125.216988-123.789988V596.150042a109.813989 109.813989 0 0 0 61.039994-97.263991z m-69.596993 792.659923a55.049995 55.049995 0 0 1-60.468994 59.042994H185.400982a59.898994 59.898994 0 0 1-60.469994-59.042994V609.270041h776.971924z m10.839999-355.683965h-798.649922a48.489995 48.489995 0 0 1-50.200995-43.639996l54.193994-390.768962a51.056995 51.056995 0 0 1 51.056995-45.350995h686.552933a49.915995 49.915995 0 0 1 50.485996 45.350995l57.045994 390.767962a48.489995 48.489995 0 0 1-50.485995 43.639996z"
  ></path>
  <path
    fill="currentColor"
    d="M804.068921 287.530072h-596.419941a35.083997 35.083997 0 0 0 0 70.451993h596.419941a35.083997 35.083997 0 1 0 0-70.451993z"
  ></path>
</svg>
