<svg
  viewBox="0 0 1024 1024"
  version="1.1"
  xmlns="http://www.w3.org/2000/svg"
>
  <path
    fill="currentColor"
    d="M977.9 268.2c-16.6-12.1-37.4-15.4-56.9-9.1L770.2 308l0.1-27.4c0.1-26.4-10.2-51.3-28.8-70-18.7-18.7-43.5-29.1-69.9-29.1l-543.1-1h-0.2c-54.4 0-98.8 44.2-98.9 98.7l-1 460.4c-0.1 26.4 10.2 51.3 28.8 70 18.7 18.7 43.5 29.1 69.9 29.1l543.1 1h0.2c54.5 0 98.8-44.3 98.9-98.7l0.1-29L920 761.9c6.6 2.2 13.4 3.3 20.1 3.3 13 0 25.9-4.1 36.9-12 16.7-12 26.3-30.7 26.3-51.3l0.7-382.3c0-20.6-9.5-39.3-26.1-51.4zM725.3 740.8c-0.1 30.2-24.7 54.8-54.9 54.8h-0.1l-543.1-1c-14.7 0-28.4-5.8-38.8-16.1-10.4-10.3-16-24.1-16-38.8l1-460.4c0-30.2 24.7-54.8 54.9-54.8l543.2 0.8c14.7 0.1 28.5 5.8 38.8 16.2 10.3 10.4 16 24.2 16 38.9l-1 460.4z m233.9-39.1c0 6.3-2.9 12-8 15.7-5.1 3.7-11.4 4.7-17.4 2.7l-164.3-54.4 0.7-311.4L934.6 301c6-1.9 12.3-0.9 17.4 2.8s8 9.4 8 15.7l-0.8 382.2z"
  ></path>
  <path
    fill="currentColor"
    d="M320 330.9H195.9c-12.2 0-22 9.8-22 22s9.8 22 22 22H320c12.1 0 22-9.8 22-22s-9.8-22-22-22z"
  ></path>
</svg>
