<svg
  viewBox="0 0 1024 1024"
  version="1.1"
  xmlns="http://www.w3.org/2000/svg"
>
  <path
    fill="currentColor"
    d="M684.218182 353.745455h32.581818c-27.927273-139.636364-176.872727-242.036364-349.090909-242.036364C176.872727 111.709091 23.272727 242.036364 23.272727 404.945455c0 93.090909 51.2 172.218182 139.636364 232.727272L125.672727 744.727273l121.018182-60.509091c46.545455 9.309091 79.127273 13.963636 125.672727 13.963636h32.581819c-4.654545-23.272727-9.309091-46.545455-9.309091-69.818182-4.654545-153.6 125.672727-274.618182 288.581818-274.618181z m-186.181818-93.09091c27.927273 0 41.890909 18.618182 41.890909 41.89091 0 27.927273-18.618182 41.890909-41.890909 41.890909-27.927273 0-51.2-18.618182-51.2-41.890909s27.927273-41.890909 51.2-41.89091zM256 349.090909c-23.272727 0-51.2-18.618182-51.2-41.890909 0-27.927273 27.927273-41.890909 51.2-41.890909 27.927273 0 41.890909 18.618182 41.890909 41.890909s-13.963636 41.890909-41.890909 41.890909z m744.727273 274.618182c0-139.636364-139.636364-246.690909-293.236364-246.690909-162.909091 0-293.236364 111.709091-293.236364 246.690909 0 139.636364 130.327273 246.690909 293.236364 246.690909 32.581818 0 69.818182-9.309091 102.4-18.618182l93.090909 51.2-27.927273-83.781818c74.472727-51.2 125.672727-121.018182 125.672728-195.490909z m-390.981818-41.890909c-18.618182 0-32.581818-18.618182-32.581819-32.581818 0-18.618182 18.618182-32.581818 32.581819-32.581819 27.927273 0 41.890909 18.618182 41.890909 32.581819 4.654545 13.963636-13.963636 32.581818-41.890909 32.581818z m190.836363 0c-18.618182 0-32.581818-18.618182-32.581818-32.581818 0-18.618182 18.618182-32.581818 32.581818-32.581819 27.927273 0 41.890909 18.618182 41.890909 32.581819 0 13.963636-13.963636 32.581818-41.890909 32.581818z"
  ></path>
</svg>
