<svg
  viewBox="0 0 1024 1024"
  version="1.1"
  xmlns="http://www.w3.org/2000/svg"
>
  <path
    fill="currentColor"
    d="M407.34720001 451.21536001s54.35733334 51.54986667 98.41663999 82.47978666c0 0 77.79669333 61.85984 64.66730666 150.89834666 0 0-10.30997333 79.66037333-87.16287999 122.77589334 0 0-58.10858666 33.73738668-141.52021334 0 0 0-58.10858666-37.48864-77.79669333-96.54101335 0 0-33.89269333-69.80437332 22.49557333-144.33962665 0 0 57.35594667-66.88938667 100.47146667-99.69493333 0 0-112.65706667-120.85248-81.02229333-243.52085334 0 0-201.26549333 174.51690667-170.33557334 385.38752 0 0 13.11744 196.82133333 179.00885334 298.97728001 0 0 164.95957332 108.71466667 368.33962667 0 0 0 205.25568-98.41664 199.62879999-375.83018669 0 0 9.37813333-175.26954667-144.33962666-330.85098665 0 0-130.76821332-139.64458667-230.8096-137.78090666 0 0-134.72256-0.93184-180.64554667 145.27146666 0 0.02389333-30.91797334 132.16597333 80.60416001 242.76821334z"
  ></path>
</svg>
